<svg xmlns="http://www.w3.org/2000/svg" width="25" height="24" fill="none" viewBox="0 0 25 24">
  <path fill="#283544" d="M22.75 12c0 5.796-4.699 10.5-10.5 10.5S1.75 17.796 1.75 12c0-5.801 4.699-10.5 10.5-10.5s10.5 4.699 10.5 10.5Z"/>
  <path fill="#fff" d="M17.172 9.343c-.058.033-1.422.739-1.422 2.303.065 1.784 1.722 2.41 1.75 2.41-.028.033-.25.851-.907 1.71-.521.739-1.1 1.484-1.978 1.484-.836 0-1.136-.493-2.1-.493-1.036 0-1.329.493-2.122.493-.878 0-1.5-.785-2.05-1.518-.714-.958-1.32-2.462-1.342-3.906-.015-.766.143-1.518.543-2.157a3.267 3.267 0 0 1 2.67-1.518c.843-.026 1.593.54 2.108.54.493 0 1.414-.54 2.457-.54.45 0 1.65.127 2.393 1.192ZM12.25 7.999c-.15-.7.264-1.398.65-1.844.492-.54 1.27-.905 1.942-.905a2.501 2.501 0 0 1-.714 1.884c-.436.539-1.186.945-1.878.865Z"/>
</svg>
